<?xml version="1.0" encoding="UTF-8"?>
<svg width="9px" height="6px" viewBox="0 0 9 6" version="1.1" xmlns="http://www.w3.org/2000/svg" xmlns:xlink="http://www.w3.org/1999/xlink">
    <!-- Generator: Sketch 52.2 (67145) - http://www.bohemiancoding.com/sketch -->
    <title>Combined Shape</title>
    <desc>Created with Sketch.</desc>
    <g id="组件" stroke="none" stroke-width="1" fill="none" fill-rule="evenodd">
        <path d="M2.92149069,4.51056309 L7.3025457,0.12950808 C7.49289622,-0.0608424456 7.82355963,-0.0387982185 8.04110309,0.178745239 C8.25864655,0.396288697 8.28069077,0.726952104 8.09034025,0.917302629 L3.34658381,5.66105907 C3.33713292,5.67210019 3.32717992,5.68285951 3.31672482,5.69330709 C3.30636733,5.70365711 3.29570367,5.71351472 3.28476298,5.7228799 L3.26509863,5.74254424 C3.07474811,5.93289477 2.7440847,5.91085054 2.52654124,5.69330709 C2.51689483,5.68366067 2.50763282,5.67379184 2.49875668,5.66372268 L0.1632752,3.32992344 C-0.0544250667,3.11237998 -0.0544250667,2.75967235 0.1632752,2.54212889 C0.380975467,2.32458543 0.733937338,2.32458543 0.951637605,2.54212889 L2.92149069,4.51056309 Z" id="Combined-Shape" fill="#FFFFFF"></path>
    </g>
</svg>